<svg xmlns="http://www.w3.org/2000/svg" width="18" height="18" viewBox="0 0 18 18">
    <g fill="#19B682">
        <path d="M12.912 17.966c-.58 0-1.155-.103-1.717-.307-2.477-.9-4.777-2.366-6.65-4.239C2.672 11.547 1.207 9.248.307 6.771c-.29-.796-.375-1.618-.254-2.443.114-.772.413-1.522.866-2.168.454-.65 1.06-1.19 1.753-1.562C3.411.201 4.216 0 5.067 0c.265 0 .494.185.55.444l.88 4.112c.04.186-.017.38-.151.515L4.84 6.576c1.42 2.824 3.725 5.13 6.55 6.55l1.505-1.506c.135-.135.328-.192.515-.152l4.112.881c.259.056.444.284.444.55 0 .85-.202 1.656-.599 2.394-.372.693-.912 1.3-1.561 1.754-.646.453-1.396.752-2.169.865-.242.036-.484.054-.725.054zM4.619 1.147c-1.123.124-2.12.713-2.78 1.657-.745 1.062-.918 2.368-.477 3.584 1.73 4.762 5.454 8.486 10.216 10.216 1.215.441 2.522.268 3.584-.477.944-.661 1.532-1.658 1.656-2.78l-3.345-.717-1.573 1.572c-.167.168-.421.212-.635.112-3.34-1.57-6.044-4.273-7.613-7.613-.1-.214-.056-.469.111-.636l1.573-1.572-.717-3.346zM17.404 9.544c-.31 0-.561-.252-.561-.562 0-4.333-3.526-7.86-7.86-7.86-.31 0-.561-.25-.561-.56 0-.31.251-.562.561-.562 2.4 0 4.655.934 6.352 2.63 1.696 1.697 2.63 3.953 2.63 6.352 0 .31-.25.562-.56.562z"/>
        <path d="M15.159 9.544c-.31 0-.562-.252-.562-.562 0-3.095-2.518-5.614-5.614-5.614-.31 0-.561-.25-.561-.561 0-.31.251-.561.561-.561 3.715 0 6.737 3.022 6.737 6.736 0 .31-.251.562-.561.562z"/>
        <path d="M12.913 9.544c-.31 0-.561-.252-.561-.562 0-1.857-1.511-3.368-3.369-3.368-.31 0-.561-.251-.561-.561 0-.31.251-.562.561-.562 2.477 0 4.491 2.015 4.491 4.491 0 .31-.25.562-.561.562z"/>
    </g>
</svg>
