<svg xmlns="http://www.w3.org/2000/svg" width="17" height="22" viewBox="0 0 17 22">
    <g fill="#19B682">
        <path d="M16.334 5.743c-.782-2.524-2.811-4.57-5.298-5.34C8.39-.418 5.63.027 3.464 1.622 2.427 2.389 1.566 3.398.975 4.54.365 5.722.042 7.052.042 8.387c0 1.822.576 3.553 1.666 5.006l6.683 8.525 6.676-8.514.008-.011c1.631-2.175 2.09-4.963 1.259-7.65zm-2.283 6.874l-5.66 7.22-5.66-7.22c-.919-1.228-1.405-2.69-1.405-4.23 0-2.249 1.084-4.39 2.9-5.73C6.06 1.308 8.404.933 10.657 1.63c2.088.646 3.793 2.368 4.45 4.493.708 2.286.324 4.653-1.055 6.494z"/>
        <path d="M8.391 3.891c-2.479 0-4.496 2.017-4.496 4.496 0 2.48 2.017 4.496 4.496 4.496 2.48 0 4.497-2.017 4.497-4.496 0-2.479-2.017-4.496-4.497-4.496zm0 7.708c-1.77 0-3.211-1.44-3.211-3.212 0-1.77 1.44-3.211 3.211-3.211s3.212 1.44 3.212 3.211-1.44 3.212-3.212 3.212z"/>
    </g>
</svg>
